<?xml version="1.0" encoding="UTF-8"?>
<svg id="Capa_2" data-name="Capa 2" xmlns="http://www.w3.org/2000/svg" viewBox="0 0 313.06 313.7">
  <defs>
    <style>
      .cls-1 {
        fill: #ee761d;
      }

      .cls-2 {
        fill: #e0cfc7;
      }
    </style>
  </defs>
  <g id="Capa_1-2" data-name="Capa 1">
    <g>
      <path class="cls-2" d="M191.32,217.45h29.28v-28.09h-29.28c-.06-1.72-.28-3.82-.85-6.17-.66-2.71-1.59-4.94-2.44-6.63l25.56-14.76-14.04-24.32c-8.41,4.62-16.82,9.25-25.23,13.87-.76-1.38-1.9-3.14-3.59-4.92-1.83-1.94-3.69-3.24-5.11-4.09l15.18-26.29-24.32-14.04c-4.95,8.45-9.91,16.9-14.86,25.35-2.37-.96-5-1.9-7.85-2.77-2.7-.82-5.25-1.46-7.64-1.97v-29.52h-28.09c.23,9.55.45,19.09.68,28.64-2.45.23-5.34.68-8.51,1.53-3.03.81-5.66,1.81-7.83,2.78l-14.69-26.09-24.32,14.04c5,8.54,10.01,17.07,15.01,25.61-2.15,1.9-4.37,3.99-6.64,6.3-2.08,2.12-3.99,4.21-5.73,6.23l-25.41-14.67-14.04,24.32c8.65,4.92,17.29,9.84,25.94,14.75-.77,1.52-1.59,3.46-2.21,5.79-.73,2.72-.97,5.14-1.02,7.02H0v28.09h29.28c.03,2.16.29,5.04,1.19,8.3.94,3.4,2.27,6.1,3.4,8.01l-25.4,14.04,14.04,24.32c8.5-5.02,16.99-10.04,25.49-15.05,1.06,1.56,2.5,3.41,4.43,5.28,2.13,2.07,4.23,3.55,5.96,4.6l-15.01,25.86,24.32,14.04c4.9-8.66,9.8-17.31,14.7-25.97,1.93.95,4.21,1.91,6.8,2.74,3.29,1.06,6.3,1.66,8.85,2v28.09h28.09v-29.15c1.87-.12,4.28-.44,6.98-1.27,2.64-.81,4.78-1.87,6.37-2.8l14.04,24.32,23.78-13.73c-4.74-8.21-9.48-16.42-14.22-24.63,1.36-.75,3.04-1.84,4.75-3.41,2.24-2.07,3.69-4.2,4.6-5.79l25.36,14.88,13.91-23.95c-8.32-4.8-16.64-9.61-24.97-14.41,1.09-1.91,2.31-4.48,3.23-7.67.97-3.37,1.29-6.36,1.36-8.64ZM110.3,268.77c-36.1,0-65.36-29.26-65.36-65.36s29.26-65.36,65.36-65.36,65.36,29.26,65.36,65.36-29.26,65.36-65.36,65.36Z"/>
      <path class="cls-2" d="M134.44,204.47c.22-4.25-.95-7.54-1.68-9.2,10.45-9.66,20.9-19.32,31.35-28.98-1.54-2.27-3.51-4.83-5.98-7.45-2.16-2.28-4.28-4.16-6.21-5.7-9.79,9.53-19.57,19.06-29.36,28.6-2.77-.91-7.02-1.94-12.26-1.81-4.36.11-7.95.98-10.47,1.81l-28.85-30.89c-2.42,1.85-5.1,4.15-7.83,6.98-2.37,2.46-4.34,4.86-5.96,7.06,10.38,9.96,20.77,19.91,31.15,29.87-.74,2.18-1.82,6.29-1.19,11.4.53,4.32,2.05,7.58,3.13,9.49-10.33,9.27-21.61,19.49-31.94,28.77,1.77,2.2,3.69,4.7,6.09,7.11,2.38,2.39,5.82,3.34,8,5.11,10-10.2,20.01-20.39,30.01-30.59,2.09.58,5.49,1.25,9.64.82,3.54-.36,6.33-1.39,8.17-2.23,9.53,10.47,19.06,20.94,28.6,31.4,2.27-1.49,4.9-3.49,7.57-6.13,2.13-2.1,3.84-4.17,5.19-6.03-9.87-10.25-19.74-20.49-29.62-30.74.85-1.58,2.23-4.61,2.44-8.68ZM117.04,215.42h-13.48l-6.74-11.68,6.74-11.68h13.48l6.74,11.68-6.74,11.68Z"/>
    </g>
    <path class="cls-1" d="M294.85,97.06c.33-2.58.52-5.61.39-9-.19-4.61-.94-8.57-1.76-11.71,5.39-3.2,10.77-6.4,16.16-9.61l-9.61-16.16-16.94,10.07c-1.75-2.23-4.15-4.89-7.35-7.49-2.76-2.25-5.42-3.9-7.68-5.09,1.54-6.07,3.09-12.15,4.63-18.22l-18.22-4.63-4.63,18.22c-2.96-.01-6.53.2-10.52.9-3.91.69-7.28,1.7-10.03,2.7-3.25-5.47-6.51-10.95-9.76-16.42l-16.16,9.61,9.61,16.16c-1.92,1.91-4.23,4.58-6.36,8.09-1.96,3.23-3.21,6.26-4.03,8.7-6.31-1.95-12.63-3.9-18.94-5.85l-4.63,18.22,18.22,4.63c-.06,2.86.08,6.31.7,10.18.6,3.7,1.49,6.91,2.4,9.52-5.39,3.2-10.77,6.4-16.16,9.61l9.6,16.14,16.16-9.61c1.8,1.95,4.02,4.1,6.73,6.23,3.26,2.57,6.4,4.48,9.1,5.88-1.55,6.08-3.09,12.16-4.64,18.24l18.22,4.61,4.62-18.21c2.11.38,5.37.72,9.25.09,4.15-.68,7.3-2.17,9.22-3.28,3.2,5.39,6.4,10.77,9.61,16.16l16.16-9.61-9.25-15.55c2.13-1.65,4.64-3.87,7.13-6.8,2.82-3.31,4.76-6.52,6.1-9.12,5.51,1.4,11.01,2.8,16.52,4.2l4.37-17.17-18.22-4.63ZM256.6,109.92h-19.41l-9.71-16.81,9.71-16.81h19.41l9.71,16.81-9.71,16.81Z"/>
    <path class="cls-1" d="M173.28,44.28c.03-1.71-.05-3.71-.37-5.93-.44-3.01-1.21-5.56-1.97-7.55,3.31-2.47,6.61-4.95,9.92-7.42l-7.42-9.92-10.4,7.78c-1.3-1.34-3.06-2.91-5.34-4.4-1.97-1.28-3.83-2.18-5.39-2.8.59-4.09,1.18-8.18,1.77-12.27l-12.27-1.77-1.77,12.27c-1.94.2-4.27.59-6.83,1.33-2.52.73-4.65,1.62-6.38,2.47-2.51-3.36-5.03-6.72-7.54-10.08l-9.92,7.42,7.42,9.92c-1.12,1.39-2.45,3.3-3.6,5.75-1.06,2.26-1.67,4.33-2.03,5.98-4.28-.84-8.55-1.68-12.83-2.52l-1.77,12.27,12.27,1.77c.16,1.88.49,4.13,1.17,6.62.65,2.39,1.46,4.42,2.24,6.07-3.31,2.47-6.61,4.95-9.92,7.42l7.42,9.91,9.92-7.42c1.31,1.15,2.92,2.41,4.85,3.62,2.32,1.46,4.51,2.49,6.37,3.22-.59,4.09-1.18,8.19-1.77,12.28l12.27,1.75,1.76-12.26c1.41.1,3.57.1,6.07-.59,2.68-.73,4.63-1.93,5.81-2.79,2.47,3.31,4.95,6.62,7.42,9.92l9.92-7.42-7.14-9.55c1.28-1.23,2.77-2.86,4.2-4.95,1.62-2.36,2.67-4.6,3.36-6.41,3.71.53,7.42,1.07,11.12,1.6l1.67-11.56-12.27-1.77ZM149.1,55.38l-12.73,1.35-7.54-10.34,5.19-11.7,12.73-1.35,7.54,10.34-5.19,11.7Z"/>
  </g>
</svg>