<?xml version="1.0" encoding="UTF-8"?>
<svg id="Capa_2" data-name="Capa 2" xmlns="http://www.w3.org/2000/svg" viewBox="0 0 303.88 304.58">
  <defs>
    <style>
      .cls-1 {
        fill: #ee761d;
      }

      .cls-2 {
        fill: #e0cfc7;
      }
    </style>
  </defs>
  <g id="Capa_1-2" data-name="Capa 1">
    <polygon class="cls-1" points="23.39 277.81 23.39 304.58 288.29 304.58 288.29 143.41 270.76 143.41 270.76 278.79 23.39 277.81"/>
    <path class="cls-2" d="M170.45,121.01l-46.75,11.69-45.77,120.91-41.88-91.7h-16.56l53.56,116.72h30.42l87.07-43.68,17.88,43.68h24.34l-62.32-157.62ZM143.3,151.21h16.25l23.57,56.41-48.7-24.27,8.88-32.14ZM103.48,260.28l22.65-60.46,56.98,24.17-79.63,36.28Z"/>
    <path class="cls-2" d="M267.84.02c-36.03,1.21-23.37,57.69-23.37,57.69L5.86,128.81c-5.28,4.26-7.23,11.39-4.87,17.53,2.15,5.58,7.51,9.41,13.63,9.74,79.86-22.4,159.72-44.8,239.58-67.2,0,0,8.77,42.85,26.3,44.8,17.53,1.95,23.37-45.77,23.37-62.33S303.88-1.19,267.84.02ZM271.09,51.22c-9.5,0-17.21-7.7-17.21-17.21s7.7-17.21,17.21-17.21,17.21,7.7,17.21,17.21-7.7,17.21-17.21,17.21Z"/>
  </g>
</svg>