<?xml version="1.0" encoding="UTF-8"?>
<svg id="Capa_2" data-name="Capa 2" xmlns="http://www.w3.org/2000/svg" viewBox="0 0 233.55 278.35">
  <defs>
    <style>
      .cls-1 {
        fill: #ee761d;
      }

      .cls-2 {
        fill: #e0cfc7;
      }
    </style>
  </defs>
  <g id="Capa_1-2" data-name="Capa 1">
    <path class="cls-1" d="M175,60.75l8.73-11.26-8.21-6.37,10.16-13.1,37.67,29.21-10.67,13.76-7.53-5.84-8.22,10.6c-2.52-2.94-5.9-6.38-10.29-9.76-4.22-3.25-8.25-5.57-11.63-7.24Z"/>
    <path class="cls-2" d="M116.77,44.8C52.28,44.8,0,97.08,0,161.57s52.28,116.77,116.77,116.77,116.77-52.28,116.77-116.77-52.28-116.77-116.77-116.77ZM116.77,255.55c-51.9,0-93.97-42.07-93.97-93.97s42.07-93.97,93.97-93.97,93.97,42.07,93.97,93.97-42.07,93.97-93.97,93.97Z"/>
    <path class="cls-2" d="M74.75,0v28.98h18.17v24.9h48.49v-24.9h16.67V0h-83.33ZM87.97,23.67h-7.35V4.41h7.35v19.25ZM104.05,23.67h-7.35V4.41h7.35v19.25ZM120.13,23.67h-7.35V4.41h7.35v19.25ZM136.2,23.67h-7.35V4.41h7.35v19.25ZM152.28,23.67h-7.35V4.41h7.35v19.25Z"/>
    <path class="cls-2" d="M121.76,144.88l54.89-46.46-47.01,55.7s1.09,4.04,0,7.46c-1.09,3.41-3.99,11.02-12.86,11.02s-13.77-8.42-13.77-12.5,4.17-14.67,13.77-14.67c2.19,0,4.16.15,4.16.15l.82-.69Z"/>
    <path class="cls-1" d="M117.14,72.12l1.45,68.14,53.35-45.35c-4.13-4.55-12.44-12.51-25.46-17.78-12.35-5-23.28-5.29-29.34-5.01Z"/>
  </g>
</svg>